<svg xmlns="http://www.w3.org/2000/svg" xmlns:xlink="http://www.w3.org/1999/xlink" width="500" zoomAndPan="magnify" viewBox="0 0 375 374.999991" height="500" preserveAspectRatio="xMidYMid meet" version="1.0"><defs><g/><clipPath id="15b18f4d6f"><path d="M 143.105469 132.722656 L 159.796875 132.722656 L 159.796875 155.140625 L 143.105469 155.140625 Z M 143.105469 132.722656 " clip-rule="nonzero"/></clipPath><clipPath id="ce716a7afd"><path d="M 181.804688 94.78125 L 260.472656 94.78125 L 260.472656 197.382812 L 181.804688 197.382812 Z M 181.804688 94.78125 " clip-rule="nonzero"/></clipPath><clipPath id="dc75cc82ab"><path d="M 117.222656 130 L 178 130 L 178 219 L 117.222656 219 Z M 117.222656 130 " clip-rule="nonzero"/></clipPath><clipPath id="0000395df9"><path d="M 156.710938 106.777344 L 185.957031 106.777344 L 185.957031 151.339844 L 156.710938 151.339844 Z M 156.710938 106.777344 " clip-rule="nonzero"/></clipPath><clipPath id="58b90a6b43"><path d="M 150.664062 120.554688 L 164.910156 120.554688 L 164.910156 136.902344 L 150.664062 136.902344 Z M 150.664062 120.554688 " clip-rule="nonzero"/></clipPath><clipPath id="51af6603d5"><path d="M 177.828125 112.710938 L 189.023438 112.710938 L 189.023438 129.058594 L 177.828125 129.058594 Z M 177.828125 112.710938 " clip-rule="nonzero"/></clipPath><clipPath id="07064dc989"><path d="M 143.105469 104.539062 L 172.105469 104.539062 L 172.105469 120.554688 L 143.105469 120.554688 Z M 143.105469 104.539062 " clip-rule="nonzero"/></clipPath><clipPath id="d8966e910c"><path d="M 164.910156 143.167969 L 183.921875 143.167969 L 183.921875 172.960938 L 164.910156 172.960938 Z M 164.910156 143.167969 " clip-rule="nonzero"/></clipPath><clipPath id="196b5b92eb"><path d="M 141.175781 108.339844 L 156.710938 108.339844 L 156.710938 124.683594 L 141.175781 124.683594 Z M 141.175781 108.339844 " clip-rule="nonzero"/></clipPath><clipPath id="be238ad642"><path d="M 177.828125 146.855469 L 187.5 146.855469 L 187.5 169.273438 L 177.828125 169.273438 Z M 177.828125 146.855469 " clip-rule="nonzero"/></clipPath><clipPath id="c938c797a8"><path d="M 147 130 L 168 130 L 168 156 L 147 156 Z M 147 130 " clip-rule="nonzero"/></clipPath><clipPath id="f604047e93"><path d="M 147.589844 134.953125 L 153.511719 130.71875 L 167.910156 150.84375 L 161.988281 155.082031 Z M 147.589844 134.953125 " clip-rule="nonzero"/></clipPath><clipPath id="1ca4875c4e"><path d="M 128 80 L 161 80 L 161 126 L 128 126 Z M 128 80 " clip-rule="nonzero"/></clipPath><clipPath id="b0b382eb94"><path d="M 164.902344 85.425781 L 155.316406 129.394531 L 124.539062 122.683594 L 134.125 78.714844 Z M 164.902344 85.425781 " clip-rule="nonzero"/></clipPath><clipPath id="1cb808c7a8"><path d="M 164.902344 85.425781 L 155.316406 129.394531 L 124.539062 122.683594 L 134.125 78.714844 Z M 164.902344 85.425781 " clip-rule="nonzero"/></clipPath><clipPath id="44ff4b2415"><path d="M 173.484375 192.183594 L 200.039062 192.183594 L 200.039062 210.03125 L 173.484375 210.03125 Z M 173.484375 192.183594 " clip-rule="nonzero"/></clipPath><clipPath id="3c491ca1bf"><path d="M 191 194 L 214 194 L 214 211 L 191 211 Z M 191 194 " clip-rule="nonzero"/></clipPath><clipPath id="cdaa13bea6"><path d="M 184.40625 189.847656 L 219.042969 199.667969 L 212.496094 222.757812 L 177.859375 212.9375 Z M 184.40625 189.847656 " clip-rule="nonzero"/></clipPath><clipPath id="577c60caa0"><path d="M 184.40625 189.847656 L 219.042969 199.667969 L 212.496094 222.757812 L 177.859375 212.9375 Z M 184.40625 189.847656 " clip-rule="nonzero"/></clipPath><clipPath id="19abb14848"><path d="M 202 207 L 215 207 L 215 216 L 202 216 Z M 202 207 " clip-rule="nonzero"/></clipPath><clipPath id="86fa6b3887"><path d="M 184.40625 189.847656 L 219.042969 199.667969 L 212.496094 222.757812 L 177.859375 212.9375 Z M 184.40625 189.847656 " clip-rule="nonzero"/></clipPath><clipPath id="acb0c87fba"><path d="M 184.40625 189.847656 L 219.042969 199.667969 L 212.496094 222.757812 L 177.859375 212.9375 Z M 184.40625 189.847656 " clip-rule="nonzero"/></clipPath><clipPath id="49f7581e6d"><path d="M 196 204 L 204 204 L 204 220 L 196 220 Z M 196 204 " clip-rule="nonzero"/></clipPath><clipPath id="c67ae9577f"><path d="M 184.40625 189.847656 L 219.042969 199.667969 L 212.496094 222.757812 L 177.859375 212.9375 Z M 184.40625 189.847656 " clip-rule="nonzero"/></clipPath><clipPath id="9c7271e368"><path d="M 184.40625 189.847656 L 219.042969 199.667969 L 212.496094 222.757812 L 177.859375 212.9375 Z M 184.40625 189.847656 " clip-rule="nonzero"/></clipPath><clipPath id="09babe1263"><path d="M 188 191 L 197 191 L 197 201 L 188 201 Z M 188 191 " clip-rule="nonzero"/></clipPath><clipPath id="f6a0a52f6f"><path d="M 184.40625 189.847656 L 219.042969 199.667969 L 212.496094 222.757812 L 177.859375 212.9375 Z M 184.40625 189.847656 " clip-rule="nonzero"/></clipPath><clipPath id="dbc4aaaa5f"><path d="M 184.40625 189.847656 L 219.042969 199.667969 L 212.496094 222.757812 L 177.859375 212.9375 Z M 184.40625 189.847656 " clip-rule="nonzero"/></clipPath><clipPath id="6dd44150d4"><path d="M 179 198 L 196 198 L 196 211 L 179 211 Z M 179 198 " clip-rule="nonzero"/></clipPath><clipPath id="85c62e4974"><path d="M 184.40625 189.847656 L 219.042969 199.667969 L 212.496094 222.757812 L 177.859375 212.9375 Z M 184.40625 189.847656 " clip-rule="nonzero"/></clipPath><clipPath id="be965fe69e"><path d="M 184.40625 189.847656 L 219.042969 199.667969 L 212.496094 222.757812 L 177.859375 212.9375 Z M 184.40625 189.847656 " clip-rule="nonzero"/></clipPath><clipPath id="b4d6abf19e"><path d="M 166 174 L 210 174 L 210 175 L 166 175 Z M 166 174 " clip-rule="nonzero"/></clipPath><clipPath id="54d594ca5f"><path d="M 145.921875 130.214844 L 189.886719 110.949219 L 209.453125 155.601562 L 165.488281 174.867188 Z M 145.921875 130.214844 " clip-rule="nonzero"/></clipPath><clipPath id="6b1c9c7280"><path d="M 145.921875 130.214844 L 234.539062 91.386719 L 273.367188 180 L 184.753906 218.832031 Z M 145.921875 130.214844 " clip-rule="nonzero"/></clipPath><clipPath id="88bbde20d8"><path d="M 149 112 L 191 112 L 191 174 L 149 174 Z M 149 112 " clip-rule="nonzero"/></clipPath><clipPath id="061e95e85e"><path d="M 145.921875 130.214844 L 189.886719 110.949219 L 209.453125 155.601562 L 165.488281 174.867188 Z M 145.921875 130.214844 " clip-rule="nonzero"/></clipPath><clipPath id="7033a11504"><path d="M 145.921875 130.214844 L 234.539062 91.386719 L 273.367188 180 L 184.753906 218.832031 Z M 145.921875 130.214844 " clip-rule="nonzero"/></clipPath><clipPath id="bc45f27346"><path d="M 191 110 L 210 110 L 210 137 L 191 137 Z M 191 110 " clip-rule="nonzero"/></clipPath><clipPath id="9e3e4a4341"><path d="M 145.921875 130.214844 L 189.886719 110.949219 L 209.453125 155.601562 L 165.488281 174.867188 Z M 145.921875 130.214844 " clip-rule="nonzero"/></clipPath><clipPath id="365d379304"><path d="M 145.921875 130.214844 L 234.539062 91.386719 L 273.367188 180 L 184.753906 218.832031 Z M 145.921875 130.214844 " clip-rule="nonzero"/></clipPath><clipPath id="ea8a93b9b9"><path d="M 343.5 205.476562 L 355.5 205.476562 L 355.5 217.476562 L 343.5 217.476562 Z M 343.5 205.476562 " clip-rule="nonzero"/></clipPath></defs><rect x="-37.5" width="450" fill="#ffffff" y="-37.499999" height="449.999989" fill-opacity="1"/><rect x="-37.5" width="450" fill="#421a42" y="-37.499999" height="449.999989" fill-opacity="1"/><g clip-path="url(#15b18f4d6f)"><path fill="#421a42" d="M 143.105469 132.722656 L 159.796875 132.722656 L 159.796875 155.152344 L 143.105469 155.152344 Z M 143.105469 132.722656 " fill-opacity="1" fill-rule="nonzero"/></g><g clip-path="url(#ce716a7afd)"><path fill="#ffffff" d="M 196.941406 188.238281 C 192.773438 185.652344 188.332031 184.277344 183.507812 186.714844 C 183.066406 186.933594 182.425781 186.75 181.875 186.753906 C 181.902344 186.246094 181.796875 185.683594 181.980469 185.238281 C 183.144531 182.414062 184.367188 179.617188 185.578125 176.8125 C 185.855469 176.171875 186.070312 175.472656 186.484375 174.929688 C 190.328125 169.867188 190.375 163.949219 189.925781 158.101562 C 189.601562 153.824219 188.4375 149.609375 187.644531 145.367188 C 186.742188 140.542969 187.191406 135.8125 188.664062 131.164062 C 189.21875 129.40625 190.054688 127.800781 192.144531 127.574219 C 194.339844 127.339844 196.25 128.273438 197.121094 130.183594 C 197.894531 131.871094 198.339844 133.914062 198.226562 135.757812 C 198.035156 138.910156 197.140625 142.015625 196.847656 145.171875 C 196.691406 146.871094 197.011719 148.664062 197.414062 150.34375 C 197.730469 151.660156 198.847656 151.691406 199.519531 150.636719 C 200.488281 149.117188 201.488281 147.511719 201.957031 145.804688 C 203.753906 139.195312 203.773438 132.398438 203.820312 125.597656 C 203.847656 120.976562 204.023438 116.339844 204.464844 111.742188 C 204.742188 108.835938 206.050781 106.171875 207.84375 103.804688 C 209.484375 101.640625 212.191406 100.414062 214.3125 101.078125 C 216.820312 101.867188 217.914062 103.859375 218.261719 106.316406 C 218.921875 110.960938 218.035156 115.429688 216.734375 119.867188 C 215.390625 124.464844 214.097656 129.082031 212.921875 133.726562 C 212.558594 135.164062 212.511719 136.722656 212.566406 138.21875 C 212.59375 139.066406 213.117188 139.890625 213.414062 140.726562 C 214.285156 140.394531 215.285156 140.242188 215.996094 139.703125 C 217.984375 138.207031 219.257812 136.140625 220.066406 133.800781 C 222.175781 127.699219 224.195312 121.566406 226.386719 115.496094 C 228.941406 108.417969 232.742188 102.144531 239.136719 97.871094 C 240.980469 96.636719 243.117188 95.640625 245.257812 95.105469 C 249.042969 94.160156 251.558594 96.675781 250.507812 100.4375 C 249.722656 103.253906 248.523438 106.050781 247 108.546875 C 243.5625 114.152344 239.664062 119.476562 236.242188 125.085938 C 233.921875 128.882812 232.007812 132.9375 230.089844 136.964844 C 229.535156 138.125 229.417969 139.582031 229.425781 140.902344 C 229.4375 142.695312 230.183594 143.164062 231.824219 142.484375 C 233.457031 141.808594 235.035156 140.96875 236.589844 140.121094 C 240.15625 138.171875 243.753906 136.316406 247.878906 135.925781 C 251.609375 135.570312 255.210938 135.855469 258.304688 138.339844 C 261.683594 141.054688 261.667969 144.609375 258.121094 147.050781 C 254.101562 149.8125 249.433594 151.070312 244.84375 152.464844 C 240.355469 153.828125 235.796875 154.980469 231.34375 156.449219 C 229.21875 157.152344 227.246094 158.332031 225.253906 159.394531 C 224.558594 159.761719 223.886719 160.328125 223.445312 160.972656 C 223.019531 161.585938 222.632812 162.46875 222.757812 163.132812 C 222.832031 163.507812 223.980469 163.925781 224.628906 163.898438 C 227.910156 163.765625 231.1875 163.402344 234.46875 163.304688 C 236.503906 163.246094 238.582031 163.3125 240.578125 163.683594 C 244.265625 164.367188 245.699219 168.007812 243.558594 171.125 C 241.601562 173.972656 238.648438 175.441406 235.445312 176.382812 C 230.816406 177.746094 226.175781 177.386719 221.535156 176.269531 C 219.082031 175.675781 216.59375 175.171875 214.09375 174.828125 C 211.3125 174.445312 208.894531 175.445312 206.851562 177.335938 C 205.53125 178.5625 205.574219 179.914062 207.128906 180.75 C 208.535156 181.5 210.089844 182.015625 211.628906 182.464844 C 214.765625 183.382812 217.675781 184.675781 220.230469 186.769531 C 223.035156 189.0625 223.167969 192.320312 220.324219 194.59375 C 216.609375 197.5625 212.476562 197.9375 208.160156 196.101562 C 206.632812 195.453125 199.402344 189.769531 196.941406 188.238281 " fill-opacity="1" fill-rule="nonzero"/></g><path fill="#ffffff" d="M 215.875 89.261719 C 213.144531 92.402344 209.964844 94.851562 206.515625 96.980469 C 202.875 99.226562 199.648438 101.882812 198.34375 106.144531 C 197.71875 108.183594 197.5 110.34375 197.058594 112.441406 C 196.917969 113.128906 196.664062 113.792969 196.464844 114.46875 C 195.9375 113.945312 195.261719 113.507812 194.90625 112.886719 C 193.539062 110.496094 191.878906 108.390625 189.273438 107.320312 C 188.109375 106.839844 186.808594 106.632812 185.546875 106.46875 C 182.191406 106.035156 178.816406 105.726562 175.457031 105.300781 C 172.351562 104.910156 169.882812 103.25 167.976562 100.90625 C 167.148438 99.886719 166.589844 98.429688 166.460938 97.117188 C 166.1875 94.382812 168.320312 92.332031 171.015625 92.851562 C 172.851562 93.207031 174.554688 94.273438 176.3125 95.042969 C 178.460938 95.980469 180.5625 97.050781 182.761719 97.839844 C 183.980469 98.273438 185.332031 97.964844 185.910156 96.585938 C 186.472656 95.238281 185.8125 94.15625 184.683594 93.40625 C 183.925781 92.90625 183.117188 92.441406 182.265625 92.152344 C 178.753906 90.964844 175.238281 89.78125 171.683594 88.734375 C 167.253906 87.429688 163.636719 84.855469 160.46875 81.644531 C 158.449219 79.597656 157.441406 76.945312 157.148438 74.082031 C 156.902344 71.695312 157.113281 69.324219 159.324219 67.878906 C 161.71875 66.3125 164.242188 66.75 166.707031 67.9375 C 169.488281 69.285156 171.527344 71.46875 173.542969 73.726562 C 174.378906 74.664062 175.421875 75.578125 176.558594 76.03125 C 177.328125 76.335938 178.585938 76.054688 179.3125 75.570312 C 179.765625 75.269531 179.984375 73.941406 179.710938 73.339844 C 178.421875 70.515625 177.183594 67.613281 175.457031 65.054688 C 171.273438 58.863281 169.714844 52.351562 171.53125 44.976562 C 173.027344 38.898438 177.933594 37.496094 182.910156 40.53125 C 184.902344 41.746094 186.242188 43.515625 187.34375 45.535156 C 190.457031 51.234375 190.894531 57.425781 190.800781 63.730469 C 190.722656 68.921875 189.753906 73.96875 188.523438 78.988281 C 188.144531 80.542969 187.972656 82.152344 187.769531 83.742188 C 187.703125 84.261719 187.773438 84.824219 187.890625 85.339844 C 188.171875 86.554688 188.785156 87.824219 190.078125 87.777344 C 190.941406 87.746094 192.050781 86.90625 192.542969 86.113281 C 193.222656 85.011719 193.667969 83.636719 193.792969 82.339844 C 194.324219 76.835938 194.734375 71.320312 195.121094 65.804688 C 195.417969 61.605469 195.722656 57.398438 197.964844 53.691406 C 198.78125 52.34375 199.851562 51.066406 201.050781 50.046875 C 203.160156 48.261719 205.796875 48.632812 207.660156 50.660156 C 209.820312 53.003906 210.273438 55.945312 210.472656 58.90625 C 210.898438 65.308594 209.09375 71.191406 206.015625 76.753906 C 205.082031 78.4375 204.253906 80.1875 203.550781 81.976562 C 203.347656 82.503906 203.527344 83.570312 203.910156 83.828125 C 204.324219 84.109375 205.402344 83.96875 205.804688 83.59375 C 207.453125 82.070312 208.964844 80.402344 210.507812 78.761719 C 212.304688 76.847656 214.089844 76.378906 216.460938 77.242188 C 218.753906 78.078125 220.074219 80.375 219.1875 82.671875 C 218.308594 84.953125 216.996094 87.070312 215.875 89.261719 " fill-opacity="1" fill-rule="nonzero"/><g clip-path="url(#dc75cc82ab)"><path fill="#ffffff" d="M 150.859375 162.320312 C 150.535156 161.3125 150.222656 160.296875 149.882812 159.292969 C 148.425781 154.960938 145.691406 151.449219 142.640625 148.148438 C 139.339844 144.585938 136.777344 140.691406 136.902344 135.570312 C 136.917969 134.925781 136.960938 134.273438 137.089844 133.648438 C 137.757812 130.457031 140.097656 129.460938 142.863281 131.214844 C 147.421875 134.105469 150.394531 138.417969 152.9375 142.992188 C 159.222656 154.296875 162.152344 166.636719 163.832031 179.34375 C 164.589844 185.054688 165.105469 190.832031 166.371094 196.433594 C 168.046875 203.828125 172.382812 210.0625 176.304688 216.433594 C 176.769531 217.191406 176.941406 218.128906 177.25 218.980469 C 176.398438 218.816406 175.539062 218.695312 174.699219 218.484375 C 170.171875 217.339844 165.617188 216.273438 161.128906 214.980469 C 156.691406 213.703125 152.214844 212.457031 148.472656 209.515625 C 144.234375 206.175781 144.566406 201.84375 149.324219 199.214844 C 149.933594 198.878906 150.609375 198.660156 151.257812 198.410156 C 151.8125 198.195312 152.386719 198.042969 152.929688 197.808594 C 154.90625 196.957031 156.136719 195.320312 155.945312 193.847656 C 155.742188 192.277344 154.320312 191.082031 152.09375 190.757812 C 148.84375 190.28125 145.578125 189.917969 142.332031 189.425781 C 138.722656 188.878906 135.410156 187.625 133.128906 184.609375 C 132.308594 183.523438 131.703125 182.179688 131.335938 180.859375 C 130.5625 178.074219 132.058594 176.355469 134.957031 176.457031 C 139.207031 176.605469 143.222656 177.675781 147.070312 179.457031 C 148.183594 179.972656 149.328125 180.460938 150.5 180.828125 C 152.363281 181.414062 153.257812 180.660156 152.804688 178.742188 C 152.515625 177.523438 151.964844 176.277344 151.226562 175.269531 C 148.035156 170.910156 143.53125 168.308594 138.683594 166.207031 C 133.394531 163.910156 128.144531 161.519531 123.523438 158.003906 C 119.636719 155.046875 117.207031 151.273438 117.375 146.183594 C 117.378906 146.019531 117.394531 145.859375 117.410156 145.699219 C 117.765625 140.726562 120.800781 138.878906 125.101562 141.351562 C 128.542969 143.332031 131.699219 145.804688 134.972656 148.074219 C 140.027344 151.585938 143.566406 156.585938 147.671875 161.03125 C 148.308594 161.722656 149.875 164.691406 150.859375 162.320312 " fill-opacity="1" fill-rule="nonzero"/></g><path fill="#ffffff" d="M 176.515625 128.164062 C 178.085938 125.851562 179.832031 123.175781 181.703125 120.59375 C 182.480469 119.523438 183.660156 118.742188 185.066406 119.160156 C 186.539062 119.597656 187 120.9375 187.210938 122.320312 C 187.664062 125.277344 186.28125 127.78125 185.144531 130.328125 C 183.476562 134.0625 181.699219 137.75 180.085938 141.507812 C 178.992188 144.046875 178.066406 146.660156 177.121094 149.261719 C 176.796875 150.160156 176.171875 150.414062 175.519531 149.933594 C 168.882812 145.027344 161.238281 141.292969 156.734375 133.902344 C 156.039062 132.761719 155.304688 131.554688 155.003906 130.28125 C 154.660156 128.800781 154.488281 127.167969 154.742188 125.6875 C 155.261719 122.605469 157.335938 121.742188 159.910156 123.496094 C 162.648438 125.367188 165.242188 127.449219 167.886719 129.429688 C 167.835938 129.054688 167.765625 128.453125 167.675781 127.851562 C 167.121094 124.171875 166.5 120.5 166.035156 116.808594 C 165.675781 113.917969 166.078125 111.082031 167.613281 108.558594 C 169.183594 105.976562 171.421875 105.921875 173.359375 108.226562 C 176.589844 112.066406 177.320312 116.613281 177.085938 121.40625 C 176.96875 123.8125 176.683594 126.214844 176.515625 128.164062 " fill-opacity="1" fill-rule="nonzero"/><path fill="#ffffff" d="M 167.835938 157.394531 C 169.742188 154.664062 172.359375 153.855469 175.652344 153.886719 C 178.902344 153.917969 180.597656 155.746094 181.710938 158.210938 C 183.003906 161.066406 182.742188 164 180.804688 166.632812 C 177.097656 171.683594 170.828125 171.785156 167.339844 166.855469 C 165.335938 164.027344 165.515625 160.679688 167.835938 157.394531 " fill-opacity="1" fill-rule="nonzero"/><path fill="#ffffff" d="M 192.953125 205.582031 C 190.484375 209.03125 185.894531 209.882812 182.574219 207.503906 C 179.34375 205.191406 178.757812 200.917969 181.207031 197.507812 C 183.628906 194.136719 188.441406 193.25 191.644531 195.582031 C 194.894531 197.945312 195.4375 202.105469 192.953125 205.582031 " fill-opacity="1" fill-rule="nonzero"/><path fill="#ffffff" d="M 145.449219 118.097656 C 142.269531 115.796875 141.542969 112.40625 143.617188 109.523438 C 146.152344 105.996094 150.398438 105.242188 153.863281 107.703125 C 156.429688 109.519531 157.152344 113.867188 155.320312 116.4375 C 152.980469 119.722656 148.691406 120.441406 145.449219 118.097656 " fill-opacity="1" fill-rule="nonzero"/><g fill="#ffffff" fill-opacity="1"><g transform="translate(15.403957, 261.882508)"><g><path d="M 46.609375 0 L 31.03125 0 L 14.96875 -30.96875 L 14.703125 -30.96875 C 15.085938 -26.09375 15.28125 -22.375 15.28125 -19.8125 L 15.28125 0 L 4.75 0 L 4.75 -43.953125 L 20.265625 -43.953125 L 36.265625 -13.40625 L 36.4375 -13.40625 C 36.15625 -17.84375 36.015625 -21.398438 36.015625 -24.078125 L 36.015625 -43.953125 L 46.609375 -43.953125 Z M 46.609375 0 "/></g></g></g><g fill="#ffffff" fill-opacity="1"><g transform="translate(62.134137, 261.882508)"><g><path d="M 26.28125 0 L 24.03125 -4.515625 L 23.78125 -4.515625 C 22.195312 -2.546875 20.582031 -1.203125 18.9375 -0.484375 C 17.300781 0.234375 15.175781 0.59375 12.5625 0.59375 C 9.351562 0.59375 6.828125 -0.363281 4.984375 -2.28125 C 3.140625 -4.207031 2.21875 -6.914062 2.21875 -10.40625 C 2.21875 -14.03125 3.476562 -16.726562 6 -18.5 C 8.53125 -20.28125 12.191406 -21.28125 16.984375 -21.5 L 22.671875 -21.671875 L 22.671875 -22.15625 C 22.671875 -24.96875 21.285156 -26.375 18.515625 -26.375 C 16.035156 -26.375 12.878906 -25.53125 9.046875 -23.84375 L 5.65625 -31.59375 C 9.625 -33.644531 14.632812 -34.671875 20.6875 -34.671875 C 25.050781 -34.671875 28.429688 -33.585938 30.828125 -31.421875 C 33.222656 -29.253906 34.421875 -26.226562 34.421875 -22.34375 L 34.421875 0 Z M 17.5625 -7.703125 C 18.976562 -7.703125 20.191406 -8.148438 21.203125 -9.046875 C 22.222656 -9.953125 22.734375 -11.125 22.734375 -12.5625 L 22.734375 -15.21875 L 20.03125 -15.09375 C 16.15625 -14.957031 14.21875 -13.535156 14.21875 -10.828125 C 14.21875 -8.742188 15.332031 -7.703125 17.5625 -7.703125 Z M 17.5625 -7.703125 "/></g></g></g><g fill="#ffffff" fill-opacity="1"><g transform="translate(95.876831, 261.882508)"><g><path d="M 20.75 -8.6875 C 22.332031 -8.6875 24.222656 -9.078125 26.421875 -9.859375 L 26.421875 -1.296875 C 24.835938 -0.609375 23.328125 -0.125 21.890625 0.15625 C 20.460938 0.445312 18.789062 0.59375 16.875 0.59375 C 12.914062 0.59375 10.066406 -0.367188 8.328125 -2.296875 C 6.585938 -4.234375 5.71875 -7.207031 5.71875 -11.21875 L 5.71875 -25.25 L 1.59375 -25.25 L 1.59375 -30.03125 L 6.828125 -33.734375 L 9.859375 -40.890625 L 17.5625 -40.890625 L 17.5625 -34.0625 L 25.921875 -34.0625 L 25.921875 -25.25 L 17.5625 -25.25 L 17.5625 -12 C 17.5625 -9.789062 18.625 -8.6875 20.75 -8.6875 Z M 20.75 -8.6875 "/></g></g></g><g fill="#ffffff" fill-opacity="1"><g transform="translate(119.57827, 261.882508)"><g><path d="M 28.328125 0 L 26.84375 -4.234375 L 26.15625 -4.234375 C 25.175781 -2.671875 23.804688 -1.472656 22.046875 -0.640625 C 20.296875 0.179688 18.238281 0.59375 15.875 0.59375 C 12.125 0.59375 9.207031 -0.488281 7.125 -2.65625 C 5.039062 -4.832031 4 -7.90625 4 -11.875 L 4 -34.0625 L 15.75 -34.0625 L 15.75 -15.453125 C 15.75 -13.222656 16.066406 -11.535156 16.703125 -10.390625 C 17.335938 -9.253906 18.375 -8.6875 19.8125 -8.6875 C 21.832031 -8.6875 23.273438 -9.484375 24.140625 -11.078125 C 25.003906 -12.671875 25.4375 -15.363281 25.4375 -19.15625 L 25.4375 -34.0625 L 37.1875 -34.0625 L 37.1875 0 Z M 28.328125 0 "/></g></g></g><g fill="#ffffff" fill-opacity="1"><g transform="translate(156.207074, 261.882508)"><g><path d="M 24.625 -34.671875 C 25.644531 -34.671875 26.617188 -34.585938 27.546875 -34.421875 L 28.203125 -34.3125 L 27.15625 -23.21875 C 26.1875 -23.457031 24.851562 -23.578125 23.15625 -23.578125 C 20.582031 -23.578125 18.710938 -22.988281 17.546875 -21.8125 C 16.390625 -20.644531 15.8125 -18.957031 15.8125 -16.75 L 15.8125 0 L 4.0625 0 L 4.0625 -34.0625 L 12.8125 -34.0625 L 14.640625 -28.625 L 15.21875 -28.625 C 16.195312 -30.425781 17.5625 -31.882812 19.3125 -33 C 21.070312 -34.113281 22.84375 -34.671875 24.625 -34.671875 Z M 24.625 -34.671875 "/></g></g></g><g fill="#ffffff" fill-opacity="1"><g transform="translate(180.479728, 261.882508)"><g><path d="M 20.5 0.59375 C 14.832031 0.59375 10.425781 -0.910156 7.28125 -3.921875 C 4.144531 -6.941406 2.578125 -11.238281 2.578125 -16.8125 C 2.578125 -22.5625 4.03125 -26.972656 6.9375 -30.046875 C 9.851562 -33.128906 14.003906 -34.671875 19.390625 -34.671875 C 24.523438 -34.671875 28.488281 -33.332031 31.28125 -30.65625 C 34.082031 -27.976562 35.484375 -24.125 35.484375 -19.09375 L 35.484375 -13.859375 L 14.46875 -13.859375 C 14.539062 -11.953125 15.234375 -10.457031 16.546875 -9.375 C 17.859375 -8.289062 19.648438 -7.75 21.921875 -7.75 C 23.984375 -7.75 25.878906 -7.945312 27.609375 -8.34375 C 29.347656 -8.738281 31.226562 -9.40625 33.25 -10.34375 L 33.25 -1.890625 C 31.40625 -0.953125 29.5 -0.304688 27.53125 0.046875 C 25.570312 0.410156 23.226562 0.59375 20.5 0.59375 Z M 19.8125 -26.671875 C 18.425781 -26.671875 17.265625 -26.234375 16.328125 -25.359375 C 15.398438 -24.484375 14.859375 -23.113281 14.703125 -21.25 L 24.8125 -21.25 C 24.769531 -22.894531 24.300781 -24.207031 23.40625 -25.1875 C 22.507812 -26.175781 21.3125 -26.671875 19.8125 -26.671875 Z M 19.8125 -26.671875 "/></g></g></g><g fill="#ffffff" fill-opacity="1"><g transform="translate(213.921789, 261.882508)"><g><path d="M 4.75 0 L 4.75 -43.953125 L 16.625 -43.953125 L 16.625 -9.59375 L 33.5625 -9.59375 L 33.5625 0 Z M 4.75 0 "/></g></g></g><g fill="#ffffff" fill-opacity="1"><g transform="translate(245.139141, 261.882508)"><g><path d="M 30.84375 0 L 4.75 0 L 4.75 -43.953125 L 30.84375 -43.953125 L 30.84375 -34.421875 L 16.625 -34.421875 L 16.625 -27.515625 L 29.796875 -27.515625 L 29.796875 -17.984375 L 16.625 -17.984375 L 16.625 -9.6875 L 30.84375 -9.6875 Z M 30.84375 0 "/></g></g></g><g fill="#ffffff" fill-opacity="1"><g transform="translate(274.312165, 261.882508)"><g><path d="M 31.71875 0 L 29.5625 -8.234375 L 15.28125 -8.234375 L 13.046875 0 L 0 0 L 14.34375 -44.140625 L 30.1875 -44.140625 L 44.703125 0 Z M 27.09375 -17.984375 L 25.203125 -25.203125 C 24.753906 -26.804688 24.210938 -28.878906 23.578125 -31.421875 C 22.953125 -33.960938 22.539062 -35.785156 22.34375 -36.890625 C 22.15625 -35.867188 21.796875 -34.1875 21.265625 -31.84375 C 20.734375 -29.5 19.554688 -24.878906 17.734375 -17.984375 Z M 27.09375 -17.984375 "/></g></g></g><g fill="#ffffff" fill-opacity="1"><g transform="translate(314.398276, 261.882508)"><g><path d="M 42.0625 -22.90625 C 42.0625 -15.570312 40.039062 -9.921875 36 -5.953125 C 31.96875 -1.984375 26.289062 0 18.96875 0 L 4.75 0 L 4.75 -43.953125 L 19.96875 -43.953125 C 27.019531 -43.953125 32.460938 -42.148438 36.296875 -38.546875 C 40.140625 -34.941406 42.0625 -29.726562 42.0625 -22.90625 Z M 29.734375 -22.484375 C 29.734375 -26.515625 28.9375 -29.5 27.34375 -31.4375 C 25.75 -33.382812 23.328125 -34.359375 20.078125 -34.359375 L 16.625 -34.359375 L 16.625 -9.734375 L 19.265625 -9.734375 C 22.878906 -9.734375 25.523438 -10.78125 27.203125 -12.875 C 28.890625 -14.976562 29.734375 -18.179688 29.734375 -22.484375 Z M 29.734375 -22.484375 "/></g></g></g><g clip-path="url(#0000395df9)"><path fill="#421a42" d="M 156.710938 106.777344 L 185.957031 106.777344 L 185.957031 151.328125 L 156.710938 151.328125 Z M 156.710938 106.777344 " fill-opacity="1" fill-rule="nonzero"/></g><g clip-path="url(#58b90a6b43)"><path fill="#421a42" d="M 150.664062 120.554688 L 164.910156 120.554688 L 164.910156 136.914062 L 150.664062 136.914062 Z M 150.664062 120.554688 " fill-opacity="1" fill-rule="nonzero"/></g><g clip-path="url(#51af6603d5)"><path fill="#421a42" d="M 177.828125 112.710938 L 189.023438 112.710938 L 189.023438 129.066406 L 177.828125 129.066406 Z M 177.828125 112.710938 " fill-opacity="1" fill-rule="nonzero"/></g><g clip-path="url(#07064dc989)"><path fill="#421a42" d="M 143.105469 104.539062 L 172.132812 104.539062 L 172.132812 120.554688 L 143.105469 120.554688 Z M 143.105469 104.539062 " fill-opacity="1" fill-rule="nonzero"/></g><g clip-path="url(#d8966e910c)"><path fill="#421a42" d="M 164.910156 143.167969 L 183.921875 143.167969 L 183.921875 172.945312 L 164.910156 172.945312 Z M 164.910156 143.167969 " fill-opacity="1" fill-rule="nonzero"/></g><g clip-path="url(#196b5b92eb)"><path fill="#421a42" d="M 141.175781 108.339844 L 156.710938 108.339844 L 156.710938 124.667969 L 141.175781 124.667969 Z M 141.175781 108.339844 " fill-opacity="1" fill-rule="nonzero"/></g><g clip-path="url(#be238ad642)"><path fill="#421a42" d="M 177.828125 146.855469 L 187.5 146.855469 L 187.5 169.292969 L 177.828125 169.292969 Z M 177.828125 146.855469 " fill-opacity="1" fill-rule="nonzero"/></g><g clip-path="url(#c938c797a8)"><g clip-path="url(#f604047e93)"><path fill="#421a42" d="M 147.589844 134.953125 L 153.511719 130.71875 L 167.90625 150.839844 L 161.984375 155.078125 Z M 147.589844 134.953125 " fill-opacity="1" fill-rule="nonzero"/></g></g><g clip-path="url(#1ca4875c4e)"><g clip-path="url(#b0b382eb94)"><g clip-path="url(#1cb808c7a8)"><path fill="#ffffff" d="M 160.300781 106.523438 C 160.1875 106.570312 160.085938 106.519531 159.984375 106.472656 C 158.4375 105.632812 156.671875 106.832031 155.105469 106.15625 C 153.652344 105.402344 153.445312 107.292969 153.34375 108.304688 C 153.332031 109.0625 153.15625 109.808594 153.148438 110.566406 C 152.941406 111.886719 152.574219 113.195312 151.996094 114.410156 C 150.578125 118.082031 146.9375 119.847656 144.402344 122.605469 C 143.472656 123.5625 142.679688 124.628906 141.863281 125.675781 C 141.5 126.015625 141.292969 125.339844 141.453125 125.078125 C 141.714844 124.523438 141.761719 123.917969 141.925781 123.339844 C 142.429688 121.785156 143.066406 120.246094 143.933594 118.859375 C 144.8125 117.492188 145.855469 116.21875 146.449219 114.6875 C 146.886719 113.335938 147.203125 111.933594 147.285156 110.515625 C 147.355469 109.851562 147.375 109.195312 147.480469 108.535156 C 147.582031 107.929688 147.941406 107.421875 148.046875 106.828125 C 146.5 107.304688 144.898438 107.558594 143.28125 107.492188 C 141.941406 107.382812 140.605469 107.285156 139.269531 107.511719 C 137.832031 107.695312 136.71875 108.652344 135.523438 109.382812 C 133.742188 110.390625 131.726562 111.050781 129.675781 111.140625 C 127.804688 110.964844 130.707031 110.320312 131.109375 110.15625 C 132.222656 109.742188 133.191406 108.996094 134.023438 108.160156 C 134.4375 107.765625 134.765625 107.285156 135.007812 106.777344 C 135.214844 106.242188 134.304688 106.167969 133.949219 106.09375 C 132.019531 105.910156 129.847656 106.285156 128.480469 107.769531 C 127.585938 108.214844 129.140625 106.480469 129.273438 106.363281 C 131.390625 104.183594 134.46875 104.308594 137.242188 103.855469 C 138.1875 103.589844 138.957031 102.898438 139.792969 102.40625 C 140.808594 101.769531 141.894531 101.230469 142.996094 100.761719 C 144.78125 100.019531 146.796875 99.601562 148.734375 99.851562 C 148.867188 99.894531 149.128906 99.917969 149.027344 99.699219 C 148.847656 99.398438 148.75 99.0625 148.621094 98.738281 C 148.441406 98.273438 148.375 97.789062 148.292969 97.308594 C 147.941406 95.25 147.984375 93.046875 146.804688 91.234375 C 145.597656 89.234375 144.425781 87.195312 143.546875 85.027344 C 143.144531 83.980469 142.640625 82.960938 142.378906 81.867188 C 142.140625 81.183594 142.585938 80.566406 143.128906 81.386719 C 144.441406 83.144531 146.324219 84.40625 147.929688 85.882812 C 151.851562 89.238281 153.3125 92.042969 153.371094 97.230469 C 153.523438 98.300781 153.453125 99.972656 154.351562 100.691406 C 154.832031 100.804688 155.320312 100.828125 155.808594 100.832031 C 156.785156 101.011719 157.714844 101.46875 158.449219 102.140625 C 159.292969 102.921875 159.628906 104.09375 159.925781 105.167969 C 160.007812 105.625 160.3125 106.066406 160.300781 106.523438 " fill-opacity="1" fill-rule="nonzero"/></g></g></g><g clip-path="url(#44ff4b2415)"><path fill="#421a42" d="M 173.484375 192.183594 L 200.050781 192.183594 L 200.050781 210.03125 L 173.484375 210.03125 Z M 173.484375 192.183594 " fill-opacity="1" fill-rule="nonzero"/></g><g clip-path="url(#3c491ca1bf)"><g clip-path="url(#cdaa13bea6)"><g clip-path="url(#577c60caa0)"><path fill="#ffffff" d="M 199.324219 194.640625 L 199.234375 194.613281 C 198.304688 194.417969 197.433594 194.375 196.625 194.484375 C 196.222656 194.539062 195.832031 194.632812 195.457031 194.765625 C 195.25 194.785156 194.722656 195.066406 193.875 195.617188 C 193.070312 196.226562 192.386719 196.96875 191.8125 197.847656 C 191.355469 198.914062 191.101562 199.867188 191.058594 200.710938 C 191 200.925781 191.042969 201.519531 191.1875 202.492188 C 191.273438 202.875 191.394531 203.25 191.554688 203.617188 C 191.875 204.355469 192.347656 205.0625 192.964844 205.734375 C 194.296875 207.25 196.238281 208.425781 198.796875 209.261719 C 199.027344 209.351562 199.789062 209.535156 201.082031 209.8125 C 201.605469 209.917969 202.144531 210.007812 202.695312 210.082031 C 203.796875 210.234375 204.945312 210.335938 206.144531 210.386719 L 211.210938 210.261719 L 212.628906 210.195312 C 213.210938 210.089844 213.503906 209.878906 213.5 209.5625 C 213.503906 209.390625 213.417969 209.191406 213.238281 208.964844 C 211.921875 207.679688 211.066406 206.757812 210.671875 206.199219 C 210.386719 205.867188 209.539062 204.34375 208.140625 201.628906 C 207.78125 201.039062 207.304688 200.417969 206.714844 199.769531 C 204.21875 197.09375 201.753906 195.382812 199.324219 194.640625 " fill-opacity="1" fill-rule="nonzero"/></g></g></g><g clip-path="url(#19abb14848)"><g clip-path="url(#86fa6b3887)"><g clip-path="url(#acb0c87fba)"><path fill="#ffffff" d="M 210.496094 209.113281 L 202.644531 207.460938 C 203.292969 207.84375 203.8125 208.167969 204.199219 208.433594 C 207.070312 210.464844 208.917969 211.757812 209.734375 212.320312 L 213.132812 214.828125 C 213.539062 215.105469 213.921875 215.292969 214.28125 215.382812 C 214.511719 215.433594 214.667969 215.4375 214.757812 215.390625 C 214.808594 215.371094 214.847656 215.339844 214.875 215.300781 C 214.933594 215.179688 214.953125 215.09375 214.9375 215.042969 C 215.011719 215.039062 214.679688 214.402344 213.945312 213.144531 C 213.523438 212.453125 212.867188 211.570312 211.96875 210.5 C 211.460938 209.929688 210.96875 209.46875 210.496094 209.113281 " fill-opacity="1" fill-rule="nonzero"/></g></g></g><g clip-path="url(#49f7581e6d)"><g clip-path="url(#c67ae9577f)"><g clip-path="url(#9c7271e368)"><path fill="#ffffff" d="M 196.953125 204.832031 L 201.019531 216.804688 C 201.464844 217.917969 201.851562 218.71875 202.179688 219.210938 C 202.566406 219.808594 202.8125 219.902344 202.925781 219.496094 C 202.964844 219.339844 202.988281 219.105469 202.984375 218.800781 L 203.003906 213.328125 C 202.996094 210.402344 202.960938 208.929688 202.890625 208.910156 L 196.953125 204.832031 " fill-opacity="1" fill-rule="nonzero"/></g></g></g><g clip-path="url(#09babe1263)"><g clip-path="url(#f6a0a52f6f)"><g clip-path="url(#dbc4aaaa5f)"><path fill="#ffffff" d="M 192.535156 192.167969 L 192.488281 192.15625 C 190.9375 191.761719 189.804688 191.714844 189.09375 192.023438 L 188.757812 192.199219 L 188.488281 192.4375 L 188.277344 192.726562 L 188.195312 193.167969 L 188.3125 193.707031 L 188.628906 194.347656 L 189.144531 195.082031 L 189.863281 195.914062 L 190.777344 196.847656 L 191.894531 197.875 L 193.210938 199 L 194.726562 200.226562 L 196.609375 195.222656 C 196.511719 194.941406 196.367188 194.660156 196.167969 194.386719 C 196.050781 194.175781 195.722656 193.835938 195.1875 193.359375 C 194.621094 193.011719 194.175781 192.777344 193.851562 192.65625 C 193.453125 192.480469 193.011719 192.320312 192.535156 192.167969 " fill-opacity="1" fill-rule="nonzero"/></g></g></g><g clip-path="url(#6dd44150d4)"><g clip-path="url(#85c62e4974)"><g clip-path="url(#be965fe69e)"><path fill="#ffffff" d="M 191.238281 198.332031 L 190.433594 198.132812 L 189.621094 198.03125 C 189.078125 198 188.535156 198.035156 187.984375 198.140625 C 187.4375 198.242188 186.886719 198.414062 186.332031 198.652344 C 185.773438 198.894531 185.214844 199.199219 184.652344 199.578125 L 183.808594 200.191406 C 183.097656 200.820312 182.464844 201.488281 181.914062 202.191406 C 181.453125 202.699219 180.890625 203.632812 180.21875 204.992188 C 179.863281 206.011719 179.628906 206.898438 179.523438 207.65625 C 179.421875 208.414062 179.441406 209.042969 179.589844 209.542969 C 179.765625 210.089844 180.089844 210.4375 180.5625 210.59375 C 180.917969 210.644531 181.257812 210.507812 181.585938 210.175781 L 181.898438 209.863281 C 182.664062 208.867188 183.335938 208.066406 183.910156 207.453125 C 184.210938 207.140625 184.746094 206.667969 185.511719 206.023438 C 186.191406 205.496094 186.59375 205.199219 186.730469 205.136719 C 187.269531 204.792969 187.8125 204.519531 188.351562 204.316406 C 189.257812 203.90625 190.351562 203.71875 191.628906 203.75 C 192.839844 203.796875 194.21875 204.152344 195.773438 204.816406 L 192.535156 198.878906 C 192.203125 198.691406 191.769531 198.511719 191.238281 198.332031 " fill-opacity="1" fill-rule="nonzero"/></g></g></g><g clip-path="url(#b4d6abf19e)"><g clip-path="url(#54d594ca5f)"><g clip-path="url(#6b1c9c7280)"><path fill="#603199" d="M 166.769531 174.050781 C 166.925781 174.847656 167.121094 175.640625 167.371094 176.433594 C 170.277344 185.789062 183.6875 183.992188 188.023438 192.191406 C 191.402344 198.574219 183.316406 206.152344 186.457031 213.257812 C 186.792969 214.015625 187.164062 214.746094 187.574219 215.449219 C 184.820312 205.625 200.710938 182.644531 228.34375 197.429688 C 201.421875 172.65625 175.738281 189.378906 166.769531 174.050781 Z M 182.503906 199.242188 C 185.269531 198.019531 186.675781 195.136719 185.648438 192.804688 C 184.617188 190.472656 181.539062 189.574219 178.773438 190.796875 C 176.003906 192.019531 174.597656 194.902344 175.628906 197.234375 C 176.65625 199.566406 179.738281 200.464844 182.503906 199.242188 " fill-opacity="1" fill-rule="nonzero"/></g></g></g><g clip-path="url(#88bbde20d8)"><g clip-path="url(#061e95e85e)"><g clip-path="url(#7033a11504)"><path fill="#ffffff" d="M 190.960938 112.117188 C 190.164062 112.273438 189.367188 112.472656 188.574219 112.71875 C 179.21875 115.628906 181.019531 129.035156 172.820312 133.371094 C 166.4375 136.75 158.859375 128.664062 151.753906 131.804688 C 150.996094 132.140625 150.265625 132.515625 149.5625 132.921875 C 159.386719 130.167969 182.367188 146.058594 167.582031 173.691406 C 192.355469 146.769531 175.632812 121.085938 190.960938 112.117188 Z M 165.769531 127.851562 C 166.992188 130.617188 169.875 132.027344 172.207031 130.996094 C 174.535156 129.964844 175.433594 126.886719 174.210938 124.121094 C 172.992188 121.355469 170.109375 119.945312 167.777344 120.976562 C 165.445312 122.007812 164.546875 125.085938 165.769531 127.851562 " fill-opacity="1" fill-rule="nonzero"/></g></g></g><g clip-path="url(#bc45f27346)"><g clip-path="url(#9e3e4a4341)"><g clip-path="url(#365d379304)"><path fill="#f68c11" d="M 252.894531 136.3125 C 252.738281 135.515625 252.539062 134.71875 252.292969 133.925781 C 249.382812 124.570312 235.976562 126.367188 231.640625 118.167969 C 228.261719 111.785156 236.347656 104.207031 233.207031 97.105469 C 232.871094 96.34375 232.496094 95.613281 232.089844 94.910156 C 234.84375 104.738281 218.953125 127.714844 191.320312 112.929688 C 218.242188 137.703125 243.925781 120.980469 252.894531 136.3125 Z M 237.160156 111.117188 C 234.390625 112.339844 232.984375 115.222656 234.015625 117.554688 C 235.046875 119.886719 238.125 120.785156 240.890625 119.5625 C 243.65625 118.339844 245.0625 115.457031 244.035156 113.125 C 243.003906 110.792969 239.925781 109.894531 237.160156 111.117188 " fill-opacity="1" fill-rule="nonzero"/></g></g></g><g fill="#ffffff" fill-opacity="1"><g transform="translate(69.069781, 280.099494)"><g><path d="M 2.328125 0 C 1.503906 0 1.09375 -0.410156 1.09375 -1.234375 L 1.09375 -8.859375 C 1.09375 -9.679688 1.503906 -10.09375 2.328125 -10.09375 L 2.59375 -10.09375 C 3.414062 -10.09375 3.828125 -9.679688 3.828125 -8.859375 L 3.828125 -1.234375 C 3.828125 -0.410156 3.414062 0 2.59375 0 Z M 2.328125 0 "/></g></g></g><g fill="#ffffff" fill-opacity="1"><g transform="translate(73.989286, 280.099494)"><g><path d="M 7.71875 -10.09375 C 8.507812 -10.09375 8.898438 -9.679688 8.890625 -8.859375 C 8.878906 -6.316406 8.878906 -3.773438 8.890625 -1.234375 C 8.890625 -0.835938 8.78125 -0.53125 8.5625 -0.3125 C 8.351562 -0.101562 8.050781 0 7.65625 0 L 7.4375 0 C 6.757812 0 6.273438 -0.304688 5.984375 -0.921875 L 3.171875 -6.75 L 3.140625 -6.75 C 3.160156 -5.726562 3.191406 -4.78125 3.234375 -3.90625 C 3.273438 -3.03125 3.320312 -2.15625 3.375 -1.28125 C 3.425781 -0.425781 3.054688 0 2.265625 0 C 1.890625 0 1.597656 -0.101562 1.390625 -0.3125 C 1.191406 -0.53125 1.097656 -0.835938 1.109375 -1.234375 C 1.117188 -3.773438 1.117188 -6.316406 1.109375 -8.859375 C 1.097656 -9.253906 1.195312 -9.554688 1.40625 -9.765625 C 1.625 -9.984375 1.929688 -10.09375 2.328125 -10.09375 L 3.078125 -10.09375 C 3.753906 -10.09375 4.238281 -9.785156 4.53125 -9.171875 L 6.796875 -4.4375 L 6.828125 -4.4375 C 6.804688 -5.238281 6.773438 -6 6.734375 -6.71875 C 6.703125 -7.4375 6.660156 -8.132812 6.609375 -8.8125 C 6.554688 -9.664062 6.925781 -10.09375 7.71875 -10.09375 Z M 7.71875 -10.09375 "/></g></g></g><g fill="#ffffff" fill-opacity="1"><g transform="translate(83.973832, 280.099494)"><g><path d="M 4.265625 0.140625 C 2.328125 0.140625 1.171875 -0.515625 0.796875 -1.828125 C 0.691406 -2.234375 0.753906 -2.546875 0.984375 -2.765625 C 1.210938 -2.992188 1.507812 -3.109375 1.875 -3.109375 L 2.015625 -3.109375 C 2.242188 -3.109375 2.421875 -3.0625 2.546875 -2.96875 C 2.679688 -2.882812 2.804688 -2.769531 2.921875 -2.625 C 3.035156 -2.488281 3.171875 -2.328125 3.328125 -2.140625 C 3.535156 -1.941406 3.878906 -1.84375 4.359375 -1.84375 C 5.117188 -1.84375 5.5 -2.140625 5.5 -2.734375 C 5.5 -3.078125 5.382812 -3.34375 5.15625 -3.53125 C 4.9375 -3.71875 4.648438 -3.875 4.296875 -4 C 3.941406 -4.125 3.566406 -4.253906 3.171875 -4.390625 C 2.785156 -4.523438 2.414062 -4.695312 2.0625 -4.90625 C 1.707031 -5.113281 1.414062 -5.398438 1.1875 -5.765625 C 0.96875 -6.128906 0.859375 -6.601562 0.859375 -7.1875 C 0.859375 -8.289062 1.175781 -9.070312 1.8125 -9.53125 C 2.457031 -10 3.367188 -10.234375 4.546875 -10.234375 C 5.679688 -10.234375 6.535156 -10.003906 7.109375 -9.546875 C 7.691406 -9.085938 8.015625 -8.425781 8.078125 -7.5625 C 8.109375 -7.15625 8.007812 -6.847656 7.78125 -6.640625 C 7.550781 -6.441406 7.253906 -6.34375 6.890625 -6.34375 C 6.515625 -6.34375 6.25 -6.445312 6.09375 -6.65625 C 5.945312 -6.875 5.828125 -7.191406 5.734375 -7.609375 C 5.671875 -7.910156 5.535156 -8.117188 5.328125 -8.234375 C 5.128906 -8.359375 4.851562 -8.421875 4.5 -8.421875 C 4.082031 -8.421875 3.789062 -8.3125 3.625 -8.09375 C 3.457031 -7.882812 3.375 -7.601562 3.375 -7.25 C 3.375 -6.914062 3.460938 -6.644531 3.640625 -6.4375 C 3.816406 -6.238281 4.050781 -6.082031 4.34375 -5.96875 C 4.632812 -5.851562 4.953125 -5.75 5.296875 -5.65625 C 5.640625 -5.5625 5.984375 -5.457031 6.328125 -5.34375 C 6.671875 -5.226562 6.988281 -5.078125 7.28125 -4.890625 C 7.570312 -4.703125 7.804688 -4.445312 7.984375 -4.125 C 8.160156 -3.8125 8.25 -3.40625 8.25 -2.90625 C 8.25 -1.90625 7.910156 -1.144531 7.234375 -0.625 C 6.566406 -0.113281 5.578125 0.140625 4.265625 0.140625 Z M 4.265625 0.140625 "/></g></g></g><g fill="#ffffff" fill-opacity="1"><g transform="translate(92.779454, 280.099494)"><g><path d="M 2.328125 0 C 1.503906 0 1.09375 -0.410156 1.09375 -1.234375 C 1.101562 -1.867188 1.109375 -2.503906 1.109375 -3.140625 C 1.117188 -3.773438 1.125 -4.410156 1.125 -5.046875 C 1.125 -5.679688 1.117188 -6.316406 1.109375 -6.953125 C 1.109375 -7.585938 1.101562 -8.222656 1.09375 -8.859375 C 1.09375 -9.679688 1.503906 -10.09375 2.328125 -10.09375 L 4.828125 -10.09375 C 6.304688 -10.09375 7.378906 -9.84375 8.046875 -9.34375 C 8.722656 -8.84375 9.0625 -8.035156 9.0625 -6.921875 C 9.0625 -6.117188 8.867188 -5.425781 8.484375 -4.84375 C 8.097656 -4.257812 7.554688 -3.8125 6.859375 -3.5 C 6.160156 -3.1875 5.328125 -3.03125 4.359375 -3.03125 L 3.8125 -3.03125 C 3.8125 -2.726562 3.8125 -2.425781 3.8125 -2.125 C 3.8125 -1.832031 3.816406 -1.535156 3.828125 -1.234375 C 3.828125 -0.410156 3.414062 0 2.59375 0 Z M 3.8125 -5.09375 L 4.3125 -5.09375 C 5 -5.09375 5.492188 -5.222656 5.796875 -5.484375 C 6.097656 -5.753906 6.25 -6.191406 6.25 -6.796875 C 6.25 -7.253906 6.113281 -7.582031 5.84375 -7.78125 C 5.570312 -7.976562 5.132812 -8.078125 4.53125 -8.078125 L 3.828125 -8.078125 C 3.816406 -7.691406 3.8125 -7.273438 3.8125 -6.828125 C 3.8125 -6.390625 3.8125 -5.8125 3.8125 -5.09375 Z M 3.8125 -5.09375 "/></g></g></g><g fill="#ffffff" fill-opacity="1"><g transform="translate(102.414692, 280.099494)"><g><path d="M 2.328125 0 C 1.503906 0 1.09375 -0.410156 1.09375 -1.234375 L 1.09375 -8.859375 C 1.09375 -9.679688 1.503906 -10.09375 2.328125 -10.09375 L 2.59375 -10.09375 C 3.414062 -10.09375 3.828125 -9.679688 3.828125 -8.859375 L 3.828125 -1.234375 C 3.828125 -0.410156 3.414062 0 2.59375 0 Z M 2.328125 0 "/></g></g></g><g fill="#ffffff" fill-opacity="1"><g transform="translate(107.334198, 280.099494)"><g><path d="M 2.328125 0 C 1.503906 0 1.09375 -0.410156 1.09375 -1.234375 C 1.101562 -1.867188 1.109375 -2.503906 1.109375 -3.140625 C 1.117188 -3.773438 1.125 -4.410156 1.125 -5.046875 C 1.125 -5.679688 1.117188 -6.316406 1.109375 -6.953125 C 1.109375 -7.585938 1.101562 -8.222656 1.09375 -8.859375 C 1.09375 -9.679688 1.503906 -10.09375 2.328125 -10.09375 L 4.828125 -10.09375 C 6.304688 -10.09375 7.378906 -9.851562 8.046875 -9.375 C 8.722656 -8.90625 9.0625 -8.132812 9.0625 -7.0625 C 9.0625 -6.414062 8.882812 -5.859375 8.53125 -5.390625 C 8.175781 -4.921875 7.6875 -4.609375 7.0625 -4.453125 L 7.0625 -4.390625 C 7.550781 -4.242188 7.945312 -3.929688 8.25 -3.453125 C 8.5625 -2.984375 8.820312 -2.296875 9.03125 -1.390625 C 9.125 -0.960938 9.066406 -0.625 8.859375 -0.375 C 8.648438 -0.125 8.332031 0 7.90625 0 L 7.4375 0 C 6.6875 0 6.25 -0.390625 6.125 -1.171875 C 6.0625 -1.640625 5.96875 -2.054688 5.84375 -2.421875 C 5.71875 -2.796875 5.535156 -3.09375 5.296875 -3.3125 C 5.066406 -3.53125 4.753906 -3.640625 4.359375 -3.640625 L 3.8125 -3.640625 C 3.8125 -3.242188 3.8125 -2.84375 3.8125 -2.4375 C 3.8125 -2.03125 3.816406 -1.628906 3.828125 -1.234375 C 3.828125 -0.410156 3.414062 0 2.59375 0 Z M 3.8125 -5.25 L 4.3125 -5.25 C 5 -5.25 5.492188 -5.367188 5.796875 -5.609375 C 6.097656 -5.847656 6.25 -6.242188 6.25 -6.796875 C 6.25 -7.253906 6.113281 -7.582031 5.84375 -7.78125 C 5.570312 -7.976562 5.132812 -8.078125 4.53125 -8.078125 L 3.828125 -8.078125 C 3.816406 -7.722656 3.8125 -7.332031 3.8125 -6.90625 C 3.8125 -6.488281 3.8125 -5.9375 3.8125 -5.25 Z M 3.8125 -5.25 "/></g></g></g><g fill="#ffffff" fill-opacity="1"><g transform="translate(117.260528, 280.099494)"><g><path d="M 3.8125 -1.9375 C 4.238281 -1.945312 4.664062 -1.953125 5.09375 -1.953125 C 5.519531 -1.953125 5.9375 -1.957031 6.34375 -1.96875 C 7.175781 -1.96875 7.59375 -1.640625 7.59375 -0.984375 C 7.59375 -0.328125 7.175781 0 6.34375 0 L 2.328125 0 C 1.929688 0 1.625 -0.101562 1.40625 -0.3125 C 1.195312 -0.53125 1.097656 -0.835938 1.109375 -1.234375 C 1.109375 -1.878906 1.109375 -2.519531 1.109375 -3.15625 C 1.117188 -3.789062 1.125 -4.421875 1.125 -5.046875 C 1.125 -5.679688 1.117188 -6.316406 1.109375 -6.953125 C 1.109375 -7.585938 1.109375 -8.222656 1.109375 -8.859375 C 1.097656 -9.253906 1.195312 -9.554688 1.40625 -9.765625 C 1.625 -9.984375 1.929688 -10.09375 2.328125 -10.09375 L 6.203125 -10.09375 C 7.023438 -10.09375 7.4375 -9.765625 7.4375 -9.109375 C 7.4375 -8.453125 7.023438 -8.125 6.203125 -8.125 C 5.816406 -8.132812 5.421875 -8.140625 5.015625 -8.140625 C 4.609375 -8.140625 4.207031 -8.144531 3.8125 -8.15625 L 3.8125 -5.921875 C 4.125 -5.929688 4.429688 -5.9375 4.734375 -5.9375 C 5.035156 -5.9375 5.332031 -5.941406 5.625 -5.953125 C 6.445312 -5.953125 6.859375 -5.628906 6.859375 -4.984375 C 6.859375 -4.316406 6.445312 -3.984375 5.625 -3.984375 C 5.332031 -3.992188 5.035156 -4 4.734375 -4 C 4.429688 -4 4.125 -4.003906 3.8125 -4.015625 Z M 3.8125 -1.9375 "/></g></g></g><g fill="#ffffff" fill-opacity="1"><g transform="translate(125.483954, 280.099494)"><g/></g></g><g fill="#ffffff" fill-opacity="1"><g transform="translate(129.122637, 280.099494)"><g><path d="M 1.828125 -4.171875 C 1.390625 -4.171875 1.0625 -4.25 0.84375 -4.40625 C 0.632812 -4.570312 0.5625 -4.800781 0.625 -5.09375 C 0.757812 -5.71875 1.195312 -6.03125 1.9375 -6.03125 L 3.828125 -6.03125 C 4.253906 -6.03125 4.570312 -5.945312 4.78125 -5.78125 C 5 -5.625 5.082031 -5.398438 5.03125 -5.109375 C 4.894531 -4.492188 4.457031 -4.1875 3.71875 -4.1875 Z M 1.828125 -4.171875 "/></g></g></g><g fill="#ffffff" fill-opacity="1"><g transform="translate(134.769873, 280.099494)"><g/></g></g><g fill="#ffffff" fill-opacity="1"><g transform="translate(138.408556, 280.099494)"><g><path d="M 8.171875 -9.109375 C 8.171875 -8.804688 8.0625 -8.566406 7.84375 -8.390625 C 7.632812 -8.210938 7.328125 -8.125 6.921875 -8.125 C 6.679688 -8.132812 6.453125 -8.140625 6.234375 -8.140625 C 6.023438 -8.140625 5.8125 -8.140625 5.59375 -8.140625 L 5.59375 -5.046875 C 5.59375 -4.410156 5.59375 -3.773438 5.59375 -3.140625 C 5.59375 -2.515625 5.59375 -1.878906 5.59375 -1.234375 C 5.601562 -0.835938 5.5 -0.53125 5.28125 -0.3125 C 5.070312 -0.101562 4.769531 0 4.375 0 L 4.109375 0 C 3.285156 0 2.875 -0.410156 2.875 -1.234375 C 2.882812 -1.867188 2.890625 -2.503906 2.890625 -3.140625 C 2.890625 -3.773438 2.890625 -4.410156 2.890625 -5.046875 C 2.890625 -5.566406 2.890625 -6.085938 2.890625 -6.609375 C 2.890625 -7.128906 2.890625 -7.640625 2.890625 -8.140625 C 2.679688 -8.140625 2.472656 -8.140625 2.265625 -8.140625 C 2.054688 -8.140625 1.835938 -8.132812 1.609375 -8.125 C 1.203125 -8.125 0.890625 -8.210938 0.671875 -8.390625 C 0.460938 -8.566406 0.359375 -8.804688 0.359375 -9.109375 C 0.359375 -9.765625 0.773438 -10.09375 1.609375 -10.09375 L 6.9375 -10.09375 C 7.757812 -10.09375 8.171875 -9.765625 8.171875 -9.109375 Z M 8.171875 -9.109375 "/></g></g></g><g fill="#ffffff" fill-opacity="1"><g transform="translate(146.937631, 280.099494)"><g><path d="M 2.328125 0 C 1.503906 0 1.09375 -0.410156 1.09375 -1.234375 C 1.101562 -1.867188 1.109375 -2.503906 1.109375 -3.140625 C 1.117188 -3.773438 1.125 -4.410156 1.125 -5.046875 C 1.125 -5.679688 1.117188 -6.316406 1.109375 -6.953125 C 1.109375 -7.585938 1.101562 -8.222656 1.09375 -8.859375 C 1.09375 -9.679688 1.503906 -10.09375 2.328125 -10.09375 L 4.828125 -10.09375 C 6.304688 -10.09375 7.378906 -9.851562 8.046875 -9.375 C 8.722656 -8.90625 9.0625 -8.132812 9.0625 -7.0625 C 9.0625 -6.414062 8.882812 -5.859375 8.53125 -5.390625 C 8.175781 -4.921875 7.6875 -4.609375 7.0625 -4.453125 L 7.0625 -4.390625 C 7.550781 -4.242188 7.945312 -3.929688 8.25 -3.453125 C 8.5625 -2.984375 8.820312 -2.296875 9.03125 -1.390625 C 9.125 -0.960938 9.066406 -0.625 8.859375 -0.375 C 8.648438 -0.125 8.332031 0 7.90625 0 L 7.4375 0 C 6.6875 0 6.25 -0.390625 6.125 -1.171875 C 6.0625 -1.640625 5.96875 -2.054688 5.84375 -2.421875 C 5.71875 -2.796875 5.535156 -3.09375 5.296875 -3.3125 C 5.066406 -3.53125 4.753906 -3.640625 4.359375 -3.640625 L 3.8125 -3.640625 C 3.8125 -3.242188 3.8125 -2.84375 3.8125 -2.4375 C 3.8125 -2.03125 3.816406 -1.628906 3.828125 -1.234375 C 3.828125 -0.410156 3.414062 0 2.59375 0 Z M 3.8125 -5.25 L 4.3125 -5.25 C 5 -5.25 5.492188 -5.367188 5.796875 -5.609375 C 6.097656 -5.847656 6.25 -6.242188 6.25 -6.796875 C 6.25 -7.253906 6.113281 -7.582031 5.84375 -7.78125 C 5.570312 -7.976562 5.132812 -8.078125 4.53125 -8.078125 L 3.828125 -8.078125 C 3.816406 -7.722656 3.8125 -7.332031 3.8125 -6.90625 C 3.8125 -6.488281 3.8125 -5.9375 3.8125 -5.25 Z M 3.8125 -5.25 "/></g></g></g><g fill="#ffffff" fill-opacity="1"><g transform="translate(156.863961, 280.099494)"><g><path d="M 4.640625 -10.234375 C 5.273438 -10.234375 5.828125 -10.082031 6.296875 -9.78125 C 6.773438 -9.488281 7.175781 -9.003906 7.5 -8.328125 C 7.820312 -7.648438 8.066406 -6.738281 8.234375 -5.59375 C 8.398438 -4.445312 8.5 -3.019531 8.53125 -1.3125 C 8.539062 -0.894531 8.4375 -0.570312 8.21875 -0.34375 C 8.007812 -0.113281 7.707031 0 7.3125 0 L 7.09375 0 C 6.269531 0 5.859375 -0.378906 5.859375 -1.140625 C 5.859375 -1.328125 5.859375 -1.515625 5.859375 -1.703125 C 5.859375 -1.890625 5.851562 -2.070312 5.84375 -2.25 L 3.265625 -2.25 C 3.265625 -2.101562 3.257812 -1.941406 3.25 -1.765625 C 3.25 -1.597656 3.25 -1.421875 3.25 -1.234375 C 3.25 -0.410156 2.84375 0 2.03125 0 C 1.632812 0 1.328125 -0.101562 1.109375 -0.3125 C 0.898438 -0.53125 0.800781 -0.84375 0.8125 -1.25 C 0.820312 -1.644531 0.832031 -2.019531 0.84375 -2.375 C 0.851562 -2.738281 0.867188 -3.085938 0.890625 -3.421875 C 1.003906 -5.140625 1.21875 -6.492188 1.53125 -7.484375 C 1.851562 -8.484375 2.269531 -9.191406 2.78125 -9.609375 C 3.300781 -10.023438 3.921875 -10.234375 4.640625 -10.234375 Z M 3.296875 -3.984375 L 5.78125 -3.984375 C 5.71875 -5.078125 5.628906 -5.925781 5.515625 -6.53125 C 5.398438 -7.132812 5.253906 -7.5625 5.078125 -7.8125 C 4.898438 -8.0625 4.6875 -8.1875 4.4375 -8.1875 C 4.195312 -8.1875 3.992188 -8.0625 3.828125 -7.8125 C 3.671875 -7.5625 3.550781 -7.132812 3.46875 -6.53125 C 3.382812 -5.925781 3.328125 -5.078125 3.296875 -3.984375 Z M 3.296875 -3.984375 "/></g></g></g><g fill="#ffffff" fill-opacity="1"><g transform="translate(166.208107, 280.099494)"><g><path d="M 7.71875 -10.09375 C 8.507812 -10.09375 8.898438 -9.679688 8.890625 -8.859375 C 8.878906 -6.316406 8.878906 -3.773438 8.890625 -1.234375 C 8.890625 -0.835938 8.78125 -0.53125 8.5625 -0.3125 C 8.351562 -0.101562 8.050781 0 7.65625 0 L 7.4375 0 C 6.757812 0 6.273438 -0.304688 5.984375 -0.921875 L 3.171875 -6.75 L 3.140625 -6.75 C 3.160156 -5.726562 3.191406 -4.78125 3.234375 -3.90625 C 3.273438 -3.03125 3.320312 -2.15625 3.375 -1.28125 C 3.425781 -0.425781 3.054688 0 2.265625 0 C 1.890625 0 1.597656 -0.101562 1.390625 -0.3125 C 1.191406 -0.53125 1.097656 -0.835938 1.109375 -1.234375 C 1.117188 -3.773438 1.117188 -6.316406 1.109375 -8.859375 C 1.097656 -9.253906 1.195312 -9.554688 1.40625 -9.765625 C 1.625 -9.984375 1.929688 -10.09375 2.328125 -10.09375 L 3.078125 -10.09375 C 3.753906 -10.09375 4.238281 -9.785156 4.53125 -9.171875 L 6.796875 -4.4375 L 6.828125 -4.4375 C 6.804688 -5.238281 6.773438 -6 6.734375 -6.71875 C 6.703125 -7.4375 6.660156 -8.132812 6.609375 -8.8125 C 6.554688 -9.664062 6.925781 -10.09375 7.71875 -10.09375 Z M 7.71875 -10.09375 "/></g></g></g><g fill="#ffffff" fill-opacity="1"><g transform="translate(176.192653, 280.099494)"><g><path d="M 4.265625 0.140625 C 2.328125 0.140625 1.171875 -0.515625 0.796875 -1.828125 C 0.691406 -2.234375 0.753906 -2.546875 0.984375 -2.765625 C 1.210938 -2.992188 1.507812 -3.109375 1.875 -3.109375 L 2.015625 -3.109375 C 2.242188 -3.109375 2.421875 -3.0625 2.546875 -2.96875 C 2.679688 -2.882812 2.804688 -2.769531 2.921875 -2.625 C 3.035156 -2.488281 3.171875 -2.328125 3.328125 -2.140625 C 3.535156 -1.941406 3.878906 -1.84375 4.359375 -1.84375 C 5.117188 -1.84375 5.5 -2.140625 5.5 -2.734375 C 5.5 -3.078125 5.382812 -3.34375 5.15625 -3.53125 C 4.9375 -3.71875 4.648438 -3.875 4.296875 -4 C 3.941406 -4.125 3.566406 -4.253906 3.171875 -4.390625 C 2.785156 -4.523438 2.414062 -4.695312 2.0625 -4.90625 C 1.707031 -5.113281 1.414062 -5.398438 1.1875 -5.765625 C 0.96875 -6.128906 0.859375 -6.601562 0.859375 -7.1875 C 0.859375 -8.289062 1.175781 -9.070312 1.8125 -9.53125 C 2.457031 -10 3.367188 -10.234375 4.546875 -10.234375 C 5.679688 -10.234375 6.535156 -10.003906 7.109375 -9.546875 C 7.691406 -9.085938 8.015625 -8.425781 8.078125 -7.5625 C 8.109375 -7.15625 8.007812 -6.847656 7.78125 -6.640625 C 7.550781 -6.441406 7.253906 -6.34375 6.890625 -6.34375 C 6.515625 -6.34375 6.25 -6.445312 6.09375 -6.65625 C 5.945312 -6.875 5.828125 -7.191406 5.734375 -7.609375 C 5.671875 -7.910156 5.535156 -8.117188 5.328125 -8.234375 C 5.128906 -8.359375 4.851562 -8.421875 4.5 -8.421875 C 4.082031 -8.421875 3.789062 -8.3125 3.625 -8.09375 C 3.457031 -7.882812 3.375 -7.601562 3.375 -7.25 C 3.375 -6.914062 3.460938 -6.644531 3.640625 -6.4375 C 3.816406 -6.238281 4.050781 -6.082031 4.34375 -5.96875 C 4.632812 -5.851562 4.953125 -5.75 5.296875 -5.65625 C 5.640625 -5.5625 5.984375 -5.457031 6.328125 -5.34375 C 6.671875 -5.226562 6.988281 -5.078125 7.28125 -4.890625 C 7.570312 -4.703125 7.804688 -4.445312 7.984375 -4.125 C 8.160156 -3.8125 8.25 -3.40625 8.25 -2.90625 C 8.25 -1.90625 7.910156 -1.144531 7.234375 -0.625 C 6.566406 -0.113281 5.578125 0.140625 4.265625 0.140625 Z M 4.265625 0.140625 "/></g></g></g><g fill="#ffffff" fill-opacity="1"><g transform="translate(184.998274, 280.099494)"><g><path d="M 7.59375 -9.046875 C 7.59375 -8.335938 7.175781 -7.984375 6.34375 -7.984375 C 5.957031 -7.992188 5.546875 -8 5.109375 -8 C 4.671875 -8 4.238281 -8.003906 3.8125 -8.015625 L 3.8125 -5.78125 C 4.15625 -5.789062 4.488281 -5.796875 4.8125 -5.796875 C 5.144531 -5.796875 5.472656 -5.800781 5.796875 -5.8125 C 6.617188 -5.8125 7.03125 -5.484375 7.03125 -4.828125 C 7.03125 -4.171875 6.617188 -3.84375 5.796875 -3.84375 C 5.472656 -3.851562 5.144531 -3.859375 4.8125 -3.859375 C 4.488281 -3.859375 4.15625 -3.863281 3.8125 -3.875 C 3.8125 -3.4375 3.8125 -3 3.8125 -2.5625 C 3.8125 -2.125 3.8125 -1.679688 3.8125 -1.234375 C 3.820312 -0.835938 3.71875 -0.53125 3.5 -0.3125 C 3.289062 -0.101562 2.988281 0 2.59375 0 L 2.328125 0 C 1.929688 0 1.625 -0.101562 1.40625 -0.3125 C 1.195312 -0.53125 1.097656 -0.835938 1.109375 -1.234375 C 1.109375 -1.878906 1.109375 -2.519531 1.109375 -3.15625 C 1.117188 -3.789062 1.125 -4.421875 1.125 -5.046875 C 1.125 -5.679688 1.117188 -6.316406 1.109375 -6.953125 C 1.109375 -7.585938 1.109375 -8.222656 1.109375 -8.859375 C 1.097656 -9.253906 1.195312 -9.554688 1.40625 -9.765625 C 1.625 -9.984375 1.929688 -10.09375 2.328125 -10.09375 L 6.34375 -10.09375 C 7.175781 -10.09375 7.59375 -9.742188 7.59375 -9.046875 Z M 7.59375 -9.046875 "/></g></g></g><g fill="#ffffff" fill-opacity="1"><g transform="translate(193.178041, 280.099494)"><g><path d="M 5.015625 0.140625 C 2.160156 0.140625 0.734375 -1.585938 0.734375 -5.046875 C 0.734375 -8.503906 2.160156 -10.234375 5.015625 -10.234375 C 7.859375 -10.234375 9.28125 -8.503906 9.28125 -5.046875 C 9.28125 -1.585938 7.859375 0.140625 5.015625 0.140625 Z M 5.015625 -1.828125 C 5.398438 -1.828125 5.695312 -1.921875 5.90625 -2.109375 C 6.125 -2.304688 6.273438 -2.640625 6.359375 -3.109375 C 6.453125 -3.578125 6.5 -4.222656 6.5 -5.046875 C 6.5 -5.878906 6.453125 -6.523438 6.359375 -6.984375 C 6.273438 -7.453125 6.125 -7.78125 5.90625 -7.96875 C 5.695312 -8.164062 5.398438 -8.265625 5.015625 -8.265625 C 4.628906 -8.265625 4.328125 -8.164062 4.109375 -7.96875 C 3.890625 -7.78125 3.734375 -7.453125 3.640625 -6.984375 C 3.554688 -6.523438 3.515625 -5.878906 3.515625 -5.046875 C 3.515625 -4.222656 3.554688 -3.578125 3.640625 -3.109375 C 3.734375 -2.640625 3.890625 -2.304688 4.109375 -2.109375 C 4.328125 -1.921875 4.628906 -1.828125 5.015625 -1.828125 Z M 5.015625 -1.828125 "/></g></g></g><g fill="#ffffff" fill-opacity="1"><g transform="translate(203.191701, 280.099494)"><g><path d="M 2.328125 0 C 1.503906 0 1.09375 -0.410156 1.09375 -1.234375 C 1.101562 -1.867188 1.109375 -2.503906 1.109375 -3.140625 C 1.117188 -3.773438 1.125 -4.410156 1.125 -5.046875 C 1.125 -5.679688 1.117188 -6.316406 1.109375 -6.953125 C 1.109375 -7.585938 1.101562 -8.222656 1.09375 -8.859375 C 1.09375 -9.679688 1.503906 -10.09375 2.328125 -10.09375 L 4.828125 -10.09375 C 6.304688 -10.09375 7.378906 -9.851562 8.046875 -9.375 C 8.722656 -8.90625 9.0625 -8.132812 9.0625 -7.0625 C 9.0625 -6.414062 8.882812 -5.859375 8.53125 -5.390625 C 8.175781 -4.921875 7.6875 -4.609375 7.0625 -4.453125 L 7.0625 -4.390625 C 7.550781 -4.242188 7.945312 -3.929688 8.25 -3.453125 C 8.5625 -2.984375 8.820312 -2.296875 9.03125 -1.390625 C 9.125 -0.960938 9.066406 -0.625 8.859375 -0.375 C 8.648438 -0.125 8.332031 0 7.90625 0 L 7.4375 0 C 6.6875 0 6.25 -0.390625 6.125 -1.171875 C 6.0625 -1.640625 5.96875 -2.054688 5.84375 -2.421875 C 5.71875 -2.796875 5.535156 -3.09375 5.296875 -3.3125 C 5.066406 -3.53125 4.753906 -3.640625 4.359375 -3.640625 L 3.8125 -3.640625 C 3.8125 -3.242188 3.8125 -2.84375 3.8125 -2.4375 C 3.8125 -2.03125 3.816406 -1.628906 3.828125 -1.234375 C 3.828125 -0.410156 3.414062 0 2.59375 0 Z M 3.8125 -5.25 L 4.3125 -5.25 C 5 -5.25 5.492188 -5.367188 5.796875 -5.609375 C 6.097656 -5.847656 6.25 -6.242188 6.25 -6.796875 C 6.25 -7.253906 6.113281 -7.582031 5.84375 -7.78125 C 5.570312 -7.976562 5.132812 -8.078125 4.53125 -8.078125 L 3.828125 -8.078125 C 3.816406 -7.722656 3.8125 -7.332031 3.8125 -6.90625 C 3.8125 -6.488281 3.8125 -5.9375 3.8125 -5.25 Z M 3.8125 -5.25 "/></g></g></g><g fill="#ffffff" fill-opacity="1"><g transform="translate(213.118031, 280.099494)"><g><path d="M 10.265625 -10.09375 C 11.085938 -10.09375 11.5 -9.679688 11.5 -8.859375 C 11.5 -8.222656 11.492188 -7.585938 11.484375 -6.953125 C 11.484375 -6.316406 11.484375 -5.679688 11.484375 -5.046875 C 11.484375 -4.410156 11.484375 -3.773438 11.484375 -3.140625 C 11.492188 -2.503906 11.5 -1.867188 11.5 -1.234375 C 11.5 -0.410156 11.085938 0 10.265625 0 L 10 0 C 9.175781 0 8.765625 -0.410156 8.765625 -1.234375 C 8.773438 -1.867188 8.78125 -2.503906 8.78125 -3.140625 C 8.789062 -3.773438 8.796875 -4.410156 8.796875 -5.046875 L 8.78125 -6.96875 L 8.71875 -6.96875 L 7.0625 -2.171875 C 6.832031 -1.503906 6.476562 -1.171875 6 -1.171875 C 5.507812 -1.171875 5.160156 -1.507812 4.953125 -2.1875 L 3.421875 -6.96875 L 3.34375 -6.96875 C 3.351562 -6.09375 3.363281 -5.316406 3.375 -4.640625 C 3.382812 -3.972656 3.394531 -3.367188 3.40625 -2.828125 C 3.425781 -2.285156 3.445312 -1.757812 3.46875 -1.25 C 3.488281 -0.84375 3.394531 -0.53125 3.1875 -0.3125 C 2.988281 -0.101562 2.691406 0 2.296875 0 C 1.910156 0 1.613281 -0.101562 1.40625 -0.3125 C 1.195312 -0.53125 1.097656 -0.835938 1.109375 -1.234375 C 1.117188 -3.773438 1.117188 -6.316406 1.109375 -8.859375 C 1.097656 -9.253906 1.195312 -9.554688 1.40625 -9.765625 C 1.625 -9.984375 1.929688 -10.09375 2.328125 -10.09375 L 3.671875 -10.09375 C 4.367188 -10.09375 4.835938 -9.765625 5.078125 -9.109375 L 6.328125 -5.8125 L 7.390625 -9.078125 C 7.597656 -9.753906 8.0625 -10.09375 8.78125 -10.09375 Z M 10.265625 -10.09375 "/></g></g></g><g fill="#ffffff" fill-opacity="1"><g transform="translate(225.707882, 280.099494)"><g/></g></g><g fill="#ffffff" fill-opacity="1"><g transform="translate(229.346565, 280.099494)"><g><path d="M 1.828125 -4.171875 C 1.390625 -4.171875 1.0625 -4.25 0.84375 -4.40625 C 0.632812 -4.570312 0.5625 -4.800781 0.625 -5.09375 C 0.757812 -5.71875 1.195312 -6.03125 1.9375 -6.03125 L 3.828125 -6.03125 C 4.253906 -6.03125 4.570312 -5.945312 4.78125 -5.78125 C 5 -5.625 5.082031 -5.398438 5.03125 -5.109375 C 4.894531 -4.492188 4.457031 -4.1875 3.71875 -4.1875 Z M 1.828125 -4.171875 "/></g></g></g><g fill="#ffffff" fill-opacity="1"><g transform="translate(234.9938, 280.099494)"><g/></g></g><g fill="#ffffff" fill-opacity="1"><g transform="translate(238.632484, 280.099494)"><g><path d="M 4.265625 0.140625 C 2.328125 0.140625 1.171875 -0.515625 0.796875 -1.828125 C 0.691406 -2.234375 0.753906 -2.546875 0.984375 -2.765625 C 1.210938 -2.992188 1.507812 -3.109375 1.875 -3.109375 L 2.015625 -3.109375 C 2.242188 -3.109375 2.421875 -3.0625 2.546875 -2.96875 C 2.679688 -2.882812 2.804688 -2.769531 2.921875 -2.625 C 3.035156 -2.488281 3.171875 -2.328125 3.328125 -2.140625 C 3.535156 -1.941406 3.878906 -1.84375 4.359375 -1.84375 C 5.117188 -1.84375 5.5 -2.140625 5.5 -2.734375 C 5.5 -3.078125 5.382812 -3.34375 5.15625 -3.53125 C 4.9375 -3.71875 4.648438 -3.875 4.296875 -4 C 3.941406 -4.125 3.566406 -4.253906 3.171875 -4.390625 C 2.785156 -4.523438 2.414062 -4.695312 2.0625 -4.90625 C 1.707031 -5.113281 1.414062 -5.398438 1.1875 -5.765625 C 0.96875 -6.128906 0.859375 -6.601562 0.859375 -7.1875 C 0.859375 -8.289062 1.175781 -9.070312 1.8125 -9.53125 C 2.457031 -10 3.367188 -10.234375 4.546875 -10.234375 C 5.679688 -10.234375 6.535156 -10.003906 7.109375 -9.546875 C 7.691406 -9.085938 8.015625 -8.425781 8.078125 -7.5625 C 8.109375 -7.15625 8.007812 -6.847656 7.78125 -6.640625 C 7.550781 -6.441406 7.253906 -6.34375 6.890625 -6.34375 C 6.515625 -6.34375 6.25 -6.445312 6.09375 -6.65625 C 5.945312 -6.875 5.828125 -7.191406 5.734375 -7.609375 C 5.671875 -7.910156 5.535156 -8.117188 5.328125 -8.234375 C 5.128906 -8.359375 4.851562 -8.421875 4.5 -8.421875 C 4.082031 -8.421875 3.789062 -8.3125 3.625 -8.09375 C 3.457031 -7.882812 3.375 -7.601562 3.375 -7.25 C 3.375 -6.914062 3.460938 -6.644531 3.640625 -6.4375 C 3.816406 -6.238281 4.050781 -6.082031 4.34375 -5.96875 C 4.632812 -5.851562 4.953125 -5.75 5.296875 -5.65625 C 5.640625 -5.5625 5.984375 -5.457031 6.328125 -5.34375 C 6.671875 -5.226562 6.988281 -5.078125 7.28125 -4.890625 C 7.570312 -4.703125 7.804688 -4.445312 7.984375 -4.125 C 8.160156 -3.8125 8.25 -3.40625 8.25 -2.90625 C 8.25 -1.90625 7.910156 -1.144531 7.234375 -0.625 C 6.566406 -0.113281 5.578125 0.140625 4.265625 0.140625 Z M 4.265625 0.140625 "/></g></g></g><g fill="#ffffff" fill-opacity="1"><g transform="translate(247.438105, 280.099494)"><g><path d="M 4.921875 0.140625 C 2.316406 0.140625 1.015625 -1.054688 1.015625 -3.453125 C 1.015625 -4.171875 1.015625 -4.890625 1.015625 -5.609375 C 1.023438 -6.335938 1.03125 -7.054688 1.03125 -7.765625 C 1.03125 -7.941406 1.03125 -8.117188 1.03125 -8.296875 C 1.03125 -8.484375 1.03125 -8.671875 1.03125 -8.859375 C 1.03125 -9.679688 1.4375 -10.09375 2.25 -10.09375 L 2.515625 -10.09375 C 2.910156 -10.09375 3.210938 -9.984375 3.421875 -9.765625 C 3.640625 -9.554688 3.75 -9.253906 3.75 -8.859375 C 3.75 -8.492188 3.75 -8.132812 3.75 -7.78125 C 3.75 -7.4375 3.75 -7.085938 3.75 -6.734375 C 3.75 -6.191406 3.75 -5.65625 3.75 -5.125 C 3.75 -4.601562 3.75 -4.070312 3.75 -3.53125 C 3.757812 -2.90625 3.851562 -2.460938 4.03125 -2.203125 C 4.207031 -1.953125 4.503906 -1.828125 4.921875 -1.828125 C 5.410156 -1.828125 5.75 -1.953125 5.9375 -2.203125 C 6.125 -2.460938 6.21875 -2.90625 6.21875 -3.53125 C 6.226562 -4.070312 6.234375 -4.601562 6.234375 -5.125 C 6.242188 -5.65625 6.25 -6.191406 6.25 -6.734375 C 6.25 -7.078125 6.25 -7.425781 6.25 -7.78125 C 6.25 -8.132812 6.242188 -8.488281 6.234375 -8.84375 C 6.222656 -9.25 6.328125 -9.554688 6.546875 -9.765625 C 6.765625 -9.984375 7.070312 -10.09375 7.46875 -10.09375 L 7.484375 -10.09375 C 7.878906 -10.09375 8.179688 -9.984375 8.390625 -9.765625 C 8.609375 -9.554688 8.710938 -9.253906 8.703125 -8.859375 C 8.703125 -8.492188 8.703125 -8.132812 8.703125 -7.78125 C 8.703125 -7.4375 8.703125 -7.085938 8.703125 -6.734375 C 8.703125 -6.179688 8.703125 -5.628906 8.703125 -5.078125 C 8.710938 -4.535156 8.71875 -3.992188 8.71875 -3.453125 C 8.71875 -1.054688 7.453125 0.140625 4.921875 0.140625 Z M 4.921875 0.140625 "/></g></g></g><g fill="#ffffff" fill-opacity="1"><g transform="translate(257.17523, 280.099494)"><g><path d="M 4.265625 0.140625 C 2.328125 0.140625 1.171875 -0.515625 0.796875 -1.828125 C 0.691406 -2.234375 0.753906 -2.546875 0.984375 -2.765625 C 1.210938 -2.992188 1.507812 -3.109375 1.875 -3.109375 L 2.015625 -3.109375 C 2.242188 -3.109375 2.421875 -3.0625 2.546875 -2.96875 C 2.679688 -2.882812 2.804688 -2.769531 2.921875 -2.625 C 3.035156 -2.488281 3.171875 -2.328125 3.328125 -2.140625 C 3.535156 -1.941406 3.878906 -1.84375 4.359375 -1.84375 C 5.117188 -1.84375 5.5 -2.140625 5.5 -2.734375 C 5.5 -3.078125 5.382812 -3.34375 5.15625 -3.53125 C 4.9375 -3.71875 4.648438 -3.875 4.296875 -4 C 3.941406 -4.125 3.566406 -4.253906 3.171875 -4.390625 C 2.785156 -4.523438 2.414062 -4.695312 2.0625 -4.90625 C 1.707031 -5.113281 1.414062 -5.398438 1.1875 -5.765625 C 0.96875 -6.128906 0.859375 -6.601562 0.859375 -7.1875 C 0.859375 -8.289062 1.175781 -9.070312 1.8125 -9.53125 C 2.457031 -10 3.367188 -10.234375 4.546875 -10.234375 C 5.679688 -10.234375 6.535156 -10.003906 7.109375 -9.546875 C 7.691406 -9.085938 8.015625 -8.425781 8.078125 -7.5625 C 8.109375 -7.15625 8.007812 -6.847656 7.78125 -6.640625 C 7.550781 -6.441406 7.253906 -6.34375 6.890625 -6.34375 C 6.515625 -6.34375 6.25 -6.445312 6.09375 -6.65625 C 5.945312 -6.875 5.828125 -7.191406 5.734375 -7.609375 C 5.671875 -7.910156 5.535156 -8.117188 5.328125 -8.234375 C 5.128906 -8.359375 4.851562 -8.421875 4.5 -8.421875 C 4.082031 -8.421875 3.789062 -8.3125 3.625 -8.09375 C 3.457031 -7.882812 3.375 -7.601562 3.375 -7.25 C 3.375 -6.914062 3.460938 -6.644531 3.640625 -6.4375 C 3.816406 -6.238281 4.050781 -6.082031 4.34375 -5.96875 C 4.632812 -5.851562 4.953125 -5.75 5.296875 -5.65625 C 5.640625 -5.5625 5.984375 -5.457031 6.328125 -5.34375 C 6.671875 -5.226562 6.988281 -5.078125 7.28125 -4.890625 C 7.570312 -4.703125 7.804688 -4.445312 7.984375 -4.125 C 8.160156 -3.8125 8.25 -3.40625 8.25 -2.90625 C 8.25 -1.90625 7.910156 -1.144531 7.234375 -0.625 C 6.566406 -0.113281 5.578125 0.140625 4.265625 0.140625 Z M 4.265625 0.140625 "/></g></g></g><g fill="#ffffff" fill-opacity="1"><g transform="translate(265.98084, 280.099494)"><g><path d="M 8.171875 -9.109375 C 8.171875 -8.804688 8.0625 -8.566406 7.84375 -8.390625 C 7.632812 -8.210938 7.328125 -8.125 6.921875 -8.125 C 6.679688 -8.132812 6.453125 -8.140625 6.234375 -8.140625 C 6.023438 -8.140625 5.8125 -8.140625 5.59375 -8.140625 L 5.59375 -5.046875 C 5.59375 -4.410156 5.59375 -3.773438 5.59375 -3.140625 C 5.59375 -2.515625 5.59375 -1.878906 5.59375 -1.234375 C 5.601562 -0.835938 5.5 -0.53125 5.28125 -0.3125 C 5.070312 -0.101562 4.769531 0 4.375 0 L 4.109375 0 C 3.285156 0 2.875 -0.410156 2.875 -1.234375 C 2.882812 -1.867188 2.890625 -2.503906 2.890625 -3.140625 C 2.890625 -3.773438 2.890625 -4.410156 2.890625 -5.046875 C 2.890625 -5.566406 2.890625 -6.085938 2.890625 -6.609375 C 2.890625 -7.128906 2.890625 -7.640625 2.890625 -8.140625 C 2.679688 -8.140625 2.472656 -8.140625 2.265625 -8.140625 C 2.054688 -8.140625 1.835938 -8.132812 1.609375 -8.125 C 1.203125 -8.125 0.890625 -8.210938 0.671875 -8.390625 C 0.460938 -8.566406 0.359375 -8.804688 0.359375 -9.109375 C 0.359375 -9.765625 0.773438 -10.09375 1.609375 -10.09375 L 6.9375 -10.09375 C 7.757812 -10.09375 8.171875 -9.765625 8.171875 -9.109375 Z M 8.171875 -9.109375 "/></g></g></g><g fill="#ffffff" fill-opacity="1"><g transform="translate(274.509915, 280.099494)"><g><path d="M 4.640625 -10.234375 C 5.273438 -10.234375 5.828125 -10.082031 6.296875 -9.78125 C 6.773438 -9.488281 7.175781 -9.003906 7.5 -8.328125 C 7.820312 -7.648438 8.066406 -6.738281 8.234375 -5.59375 C 8.398438 -4.445312 8.5 -3.019531 8.53125 -1.3125 C 8.539062 -0.894531 8.4375 -0.570312 8.21875 -0.34375 C 8.007812 -0.113281 7.707031 0 7.3125 0 L 7.09375 0 C 6.269531 0 5.859375 -0.378906 5.859375 -1.140625 C 5.859375 -1.328125 5.859375 -1.515625 5.859375 -1.703125 C 5.859375 -1.890625 5.851562 -2.070312 5.84375 -2.25 L 3.265625 -2.25 C 3.265625 -2.101562 3.257812 -1.941406 3.25 -1.765625 C 3.25 -1.597656 3.25 -1.421875 3.25 -1.234375 C 3.25 -0.410156 2.84375 0 2.03125 0 C 1.632812 0 1.328125 -0.101562 1.109375 -0.3125 C 0.898438 -0.53125 0.800781 -0.84375 0.8125 -1.25 C 0.820312 -1.644531 0.832031 -2.019531 0.84375 -2.375 C 0.851562 -2.738281 0.867188 -3.085938 0.890625 -3.421875 C 1.003906 -5.140625 1.21875 -6.492188 1.53125 -7.484375 C 1.851562 -8.484375 2.269531 -9.191406 2.78125 -9.609375 C 3.300781 -10.023438 3.921875 -10.234375 4.640625 -10.234375 Z M 3.296875 -3.984375 L 5.78125 -3.984375 C 5.71875 -5.078125 5.628906 -5.925781 5.515625 -6.53125 C 5.398438 -7.132812 5.253906 -7.5625 5.078125 -7.8125 C 4.898438 -8.0625 4.6875 -8.1875 4.4375 -8.1875 C 4.195312 -8.1875 3.992188 -8.0625 3.828125 -7.8125 C 3.671875 -7.5625 3.550781 -7.132812 3.46875 -6.53125 C 3.382812 -5.925781 3.328125 -5.078125 3.296875 -3.984375 Z M 3.296875 -3.984375 "/></g></g></g><g fill="#ffffff" fill-opacity="1"><g transform="translate(283.854061, 280.099494)"><g><path d="M 2.328125 0 C 1.503906 0 1.09375 -0.410156 1.09375 -1.234375 L 1.09375 -8.859375 C 1.09375 -9.679688 1.503906 -10.09375 2.328125 -10.09375 L 2.59375 -10.09375 C 3.414062 -10.09375 3.828125 -9.679688 3.828125 -8.859375 L 3.828125 -1.234375 C 3.828125 -0.410156 3.414062 0 2.59375 0 Z M 2.328125 0 "/></g></g></g><g fill="#ffffff" fill-opacity="1"><g transform="translate(288.773578, 280.099494)"><g><path d="M 7.71875 -10.09375 C 8.507812 -10.09375 8.898438 -9.679688 8.890625 -8.859375 C 8.878906 -6.316406 8.878906 -3.773438 8.890625 -1.234375 C 8.890625 -0.835938 8.78125 -0.53125 8.5625 -0.3125 C 8.351562 -0.101562 8.050781 0 7.65625 0 L 7.4375 0 C 6.757812 0 6.273438 -0.304688 5.984375 -0.921875 L 3.171875 -6.75 L 3.140625 -6.75 C 3.160156 -5.726562 3.191406 -4.78125 3.234375 -3.90625 C 3.273438 -3.03125 3.320312 -2.15625 3.375 -1.28125 C 3.425781 -0.425781 3.054688 0 2.265625 0 C 1.890625 0 1.597656 -0.101562 1.390625 -0.3125 C 1.191406 -0.53125 1.097656 -0.835938 1.109375 -1.234375 C 1.117188 -3.773438 1.117188 -6.316406 1.109375 -8.859375 C 1.097656 -9.253906 1.195312 -9.554688 1.40625 -9.765625 C 1.625 -9.984375 1.929688 -10.09375 2.328125 -10.09375 L 3.078125 -10.09375 C 3.753906 -10.09375 4.238281 -9.785156 4.53125 -9.171875 L 6.796875 -4.4375 L 6.828125 -4.4375 C 6.804688 -5.238281 6.773438 -6 6.734375 -6.71875 C 6.703125 -7.4375 6.660156 -8.132812 6.609375 -8.8125 C 6.554688 -9.664062 6.925781 -10.09375 7.71875 -10.09375 Z M 7.71875 -10.09375 "/></g></g></g><g clip-path="url(#ea8a93b9b9)"><path fill="#ffffff" d="M 349.550781 205.476562 C 346.21875 205.476562 343.5 208.195312 343.5 211.53125 C 343.5 214.867188 346.21875 217.582031 349.550781 217.582031 C 352.886719 217.582031 355.605469 214.867188 355.605469 211.53125 C 355.605469 208.195312 352.886719 205.476562 349.550781 205.476562 Z M 349.550781 206.6875 C 352.234375 206.6875 354.394531 208.851562 354.394531 211.53125 C 354.394531 214.210938 352.234375 216.375 349.550781 216.375 C 346.871094 216.375 344.710938 214.210938 344.710938 211.53125 C 344.710938 208.851562 346.871094 206.6875 349.550781 206.6875 Z M 349.550781 208.507812 C 348.777344 208.507812 348 208.804688 347.414062 209.390625 C 346.234375 210.566406 346.234375 212.492188 347.414062 213.671875 C 348.589844 214.847656 350.515625 214.847656 351.691406 213.671875 L 350.835938 212.816406 C 350.121094 213.527344 348.984375 213.527344 348.269531 212.816406 C 347.554688 212.101562 347.554688 210.960938 348.269531 210.246094 C 348.984375 209.535156 350.121094 209.535156 350.835938 210.246094 L 351.691406 209.390625 C 351.105469 208.804688 350.328125 208.507812 349.550781 208.507812 Z M 349.550781 208.507812 " fill-opacity="1" fill-rule="nonzero"/></g></svg>